<?xml version="1.0" standalone="no"?>
<!DOCTYPE svg PUBLIC "-//W3C//DTD SVG 20010904//EN"
 "http://www.w3.org/TR/2001/REC-SVG-20010904/DTD/svg10.dtd">
<svg version="1.0" xmlns="http://www.w3.org/2000/svg"
 width="500.000000pt" height="153.000000pt" viewBox="0 0 500.000000 153.000000"
 preserveAspectRatio="xMidYMid meet">

<g transform="translate(0.000000,153.000000) scale(0.100000,-0.100000)"
fill="#000000" stroke="none">
<path d="M520 1421 c-14 -28 -13 -53 6 -79 9 -13 13 -30 10 -38 -5 -13 -9 -13
-35 1 -22 11 -32 25 -37 51 -4 24 -10 32 -17 25 -16 -16 12 -71 47 -92 24 -15
27 -19 14 -24 -33 -13 -63 0 -78 32 -16 35 -30 43 -30 17 0 -22 55 -74 78 -74
15 0 21 -9 26 -39 8 -52 48 -98 97 -112 l39 -12 0 -434 0 -433 295 0 296 0 -3
117 -3 118 -145 3 c-100 2 -147 6 -152 15 -4 7 -8 37 -8 68 0 43 4 58 16 63 9
3 74 6 145 6 l129 0 0 120 0 119 -142 3 -143 3 -3 58 c-2 35 2 64 9 73 9 11
43 14 155 14 l144 0 0 114 c0 95 -3 115 -16 120 -9 3 -59 6 -112 7 -75 1 -90
3 -66 10 34 10 58 33 68 67 11 33 -8 27 -21 -8 -12 -31 -49 -48 -80 -35 -16 6
-14 9 9 21 15 8 32 23 38 34 13 24 13 70 0 70 -5 0 -10 -12 -10 -27 0 -33 -8
-46 -36 -61 -35 -18 -47 5 -21 39 17 23 19 34 11 56 -5 14 -15 28 -22 31 -11
3 -11 1 -1 -16 10 -15 10 -29 3 -49 -10 -29 -10 -29 -95 -17 -38 6 -84 -11
-108 -40 -12 -14 -16 -13 -42 9 -38 31 -92 41 -136 26 -49 -18 -67 -1 -59 56
6 47 2 54 -14 24z m183 -110 c8 -8 2 -11 -23 -11 -35 0 -70 -23 -70 -47 0 -7
15 -19 33 -26 l32 -14 -32 -17 c-18 -9 -33 -21 -33 -26 0 -19 50 -42 80 -38
38 6 38 2 -2 -18 -57 -30 -121 -5 -155 59 -24 47 0 115 49 144 26 15 104 11
121 -6z m217 9 c12 -8 10 -10 -10 -10 -31 0 -70 -26 -70 -46 0 -9 14 -21 30
-27 17 -6 30 -14 30 -18 0 -4 -13 -12 -30 -18 -16 -5 -30 -15 -30 -20 0 -21
49 -43 86 -39 l37 4 -28 -24 c-24 -20 -36 -23 -72 -19 -70 8 -90 34 -89 113 1
59 4 68 29 90 30 25 88 32 117 14z"/>
<path d="M1276 1143 c3 -16 40 -226 83 -468 l78 -440 105 -3 105 -3 41 233
c23 128 54 304 69 391 15 86 31 157 35 157 5 0 6 -168 3 -373 -3 -206 -3 -381
1 -390 5 -15 29 -17 200 -17 l194 0 0 95 0 95 -100 0 -100 0 0 90 0 90 100 50
100 50 0 111 0 111 -95 -51 c-53 -28 -98 -51 -100 -51 -3 0 -5 36 -5 80 l0 80
100 0 100 0 0 95 0 95 -135 0 c-153 0 -185 -9 -229 -60 l-28 -34 7 47 7 47
-99 0 -99 0 -34 -200 c-18 -110 -35 -198 -38 -195 -3 3 -71 375 -72 393 0 1
-45 2 -100 2 l-99 0 5 -27z"/>
<path d="M2220 700 l0 -470 95 0 95 0 0 375 0 375 25 0 25 0 0 -375 0 -375
100 0 100 0 0 410 c0 449 -1 458 -58 499 -38 27 -110 37 -154 22 -22 -8 -34
-8 -36 -1 -2 6 -42 10 -98 10 l-94 0 0 -470z"/>
<path d="M2670 1075 l0 -95 70 0 70 0 0 -375 0 -375 100 0 100 0 0 375 0 375
70 0 70 0 0 95 0 95 -240 0 -240 0 0 -95z"/>
<path d="M3160 700 l0 -470 100 0 100 0 0 183 0 184 25 11 25 12 0 -195 0
-195 95 0 95 0 0 470 0 470 -95 0 -95 0 0 -165 c0 -152 -1 -165 -19 -175 -11
-5 -22 -10 -25 -10 -3 0 -6 79 -6 175 l0 175 -100 0 -100 0 0 -470z"/>
<path d="M3650 759 c0 -454 0 -456 64 -502 27 -19 46 -22 146 -25 132 -3 168
8 207 67 23 34 23 34 23 452 l0 419 -95 0 -95 0 -2 -372 -3 -373 -22 -3 -23
-3 0 375 0 376 -100 0 -100 0 0 -411z"/>
<path d="M4140 700 l0 -471 174 3 c195 3 210 8 247 78 17 31 19 63 18 389 0
390 -1 400 -60 442 -32 23 -43 24 -206 27 l-173 4 0 -472z m240 211 c0 -68 -7
-81 -41 -81 -10 0 -13 133 -2 143 3 4 15 7 25 7 16 0 18 -9 18 -69z m0 -392
c0 -98 0 -100 -22 -97 -22 3 -23 9 -26 88 -2 71 0 87 14 97 10 7 21 13 26 13
4 0 8 -45 8 -101z"/>
</g>
</svg>
